<?xml version="1.0" encoding="utf-8"?>
<!-- HsKA / smart  -->
<!DOCTYPE svg PUBLIC "-//W3C//DTD SVG 1.1//EN" "http://www.w3.org/Graphics/SVG/1.1/DTD/svg11.dtd">
<svg version="1.1" id="Ebene_1" xmlns="http://www.w3.org/2000/svg" xmlns:xlink="http://www.w3.org/1999/xlink" x="0px" y="0px"
	 width="394.124px" height="147.188px" viewBox="0 0 394.124 147.188" enable-background="new 0 0 394.124 147.188"
	 xml:space="preserve">
<g>
	<path fill="#FBB820" d="M0,0c33.809,52.07,138.772,127.056,197.052,147.188C255.154,127.056,360.382,52.07,394.124,0H0z
		 M253.412,79.916H141.422c-3.497,0-6.327-2.83-6.327-6.327c0-3.498,2.83-6.328,6.327-6.328h111.989c3.498,0,6.328,2.83,6.328,6.328
		C259.74,77.086,256.91,79.916,253.412,79.916z M253.412,46.286H141.422c-3.497,0-6.327-2.83-6.327-6.328
		c0-3.497,2.83-6.327,6.327-6.327h111.989c3.498,0,6.328,2.83,6.328,6.327C259.74,43.456,256.91,46.286,253.412,46.286z"/>
</g>
</svg>
