<?xml version="1.0" encoding="utf-8"?>
<!-- Generator: Adobe Illustrator 16.0.3, SVG Export Plug-In . SVG Version: 6.00 Build 0)  -->
<!DOCTYPE svg PUBLIC "-//W3C//DTD SVG 1.1//EN" "http://www.w3.org/Graphics/SVG/1.1/DTD/svg11.dtd">
<svg version="1.1" id="Ebene_2" xmlns="http://www.w3.org/2000/svg" xmlns:xlink="http://www.w3.org/1999/xlink" x="0px" y="0px"
	 width="841.89px" height="595.28px" viewBox="0 0 841.89 595.28" enable-background="new 0 0 841.89 595.28" xml:space="preserve" style="width: 50%; left: -6%; position: absolute; top: -30%;">
<path fill="#333333" stroke="#FFFFFF" stroke-width="5" stroke-miterlimit="10" d="M139.083,350.164
	c-0.416-45.292,6.233-66.483,8.311-76.872s7.064-23.685,16.206-31.995s33.242-14.543,37.813-14.959s29.502-4.986,36.982-9.557
	s16.621-13.712,29.502-31.58s39.475-37.813,54.434-46.539s35.735-19.529,65.653-25.347s51.111-2.909,65.238-1.662
	s36.149,8.727,44.045,12.05s35.127,18.095,41.968,23.685c15.227,12.44,30.749,22.438,51.109,51.109
	c3.609,5.082,12.171,16.355,24.704,20.195c22.47,6.884,31.955,4.767,59.926,15.147c10.02,3.718,18.979,13.337,23.964,32.124
	s7.338,33.092,9,51.791s3.324,42.8,0,62.744s-4.571,34.072-17.452,47.369s-39.89,15.375-44.461,16.206s-72.716,6.232-87.26,7.063
	s-153.744,2.909-157.068,2.909s-119.255-4.571-119.255-4.571s-69.06-2.747-98.082-8.841
	C144.879,432.345,139.499,395.456,139.083,350.164z"/>
<path class="smart-cockpit-panel" onclick="window.parent.selectPanel('Links')" fill="#FBB824" stroke="#FBB824" stroke-width="5" stroke-miterlimit="10" d="M175.5,269c-6.883,21.21-11,52.5-10.5,76.5
	s2,42.5,5.5,54.5s11.263,14.45,16.727,16.5c9.336,3.503,40.269,7.568,44.273,5c3.02-1.937-9.5-25.5-12.5-51.5s-3.5-50.72-0.5-72.36
	S226,264,228,258s4.015-10.786,0.376-10.888C216.309,246.772,182.959,246.015,175.5,269z"/>
<path class="smart-cockpit-panel" onclick="window.parent.selectPanel('Rechts')" fill="#FBB824" stroke="#FBB824" stroke-width="5" stroke-miterlimit="10" d="M673.634,269c6.884,21.211,11,52.5,10.5,76.5
	s-2,42.5-5.5,54.5s-11.263,14.45-16.727,16.5c-9.336,3.503-40.269,7.568-44.273,5c-3.02-1.937,9.5-25.5,12.5-51.5
	s3.5-50.72,0.5-72.359c-3-21.641-7.5-33.641-9.5-39.641s-4.015-10.786-0.377-10.888C632.825,246.772,666.174,246.015,673.634,269z"
	/>
<path class="smart-cockpit-panel" onclick="window.parent.selectPanel('Unten')" fill="#FBB824" stroke="#FBB824" stroke-width="5" stroke-miterlimit="10" d="M266.619,360.005h313.808
	c0,0,6.608-0.245,6.854,5.63s-1.634,41.049-17.407,45.764c-5.703,1.705-18.469,7.516-148.928,7.516
	c-127.155,0-136.947-4.079-143.311-6.771s-14.977-17.398-16.4-44.55C261.003,363.187,261.21,360.004,266.619,360.005z"/>
<path class="smart-cockpit-panel" onclick="window.parent.selectPanel('Oben')" fill="#FBB824" stroke="#FBB824" stroke-width="5" stroke-miterlimit="10" d="M424.237,186.5c0,0,123.874-6.029,159.263,128.5
	c2.745,10.436-1.5,10-6,11s-95,0-95,0s-11,2-19.5-6.5s-17.025-19-38.763-19S390.5,315.5,383.5,321s-2.5,6-20,6s-91.5,0-91.5,0
	s-8.5-0.5-8-8S294.975,190,424.237,186.5z"/>
</svg>
