<?xml version="1.0" encoding="utf-8"?>
<!-- Generator: Adobe Illustrator 16.0.3, SVG Export Plug-In . SVG Version: 6.00 Build 0)  -->
<!DOCTYPE svg PUBLIC "-//W3C//DTD SVG 1.1//EN" "http://www.w3.org/Graphics/SVG/1.1/DTD/svg11.dtd">
<svg version="1.1" id="Ebene_2" xmlns="http://www.w3.org/2000/svg" xmlns:xlink="http://www.w3.org/1999/xlink" x="0px" y="0px"
	 width="841.891px" height="511.14px" viewBox="0 0 841.891 511.14" enable-background="new 0 0 841.891 511.14"
	 xml:space="preserve">
<path fill="#333333" stroke="#FFFFFF" stroke-width="5" stroke-miterlimit="10" d="M6.353,356.313
	c-0.604-65.797,9.056-96.583,12.075-111.677c3.019-15.093,10.262-34.409,23.544-46.481c13.281-12.073,48.292-21.128,54.933-21.732
	c6.641-0.604,42.86-7.243,53.728-13.884c10.866-6.641,24.146-19.921,42.86-45.879c18.713-25.958,57.348-54.934,79.08-67.611
	c21.732-12.677,51.916-28.372,95.38-36.824C411.415,3.773,442.205,8,462.728,9.81c20.523,1.812,52.516,12.679,63.986,17.506
	c11.473,4.828,51.031,26.288,60.971,34.409c22.123,18.072,44.672,32.598,74.252,74.25c5.242,7.383,17.682,23.76,35.889,29.338
	c32.645,10.001,46.424,6.925,87.061,22.005c14.555,5.402,27.57,19.376,34.814,46.669c7.242,27.293,10.66,48.076,13.076,75.24
	c2.414,27.166,4.828,62.18,0,91.153c-4.83,28.975-6.643,49.5-25.357,68.817c-18.713,19.317-57.949,22.336-64.592,23.546
	c-6.639,1.205-105.639,9.051-126.77,10.26c-21.127,1.206-223.355,4.225-228.185,4.225c-4.828,0-173.251-6.64-173.251-6.64
	s-100.33-3.992-142.492-12.845C14.773,475.707,6.957,422.114,6.353,356.313z"/>
<path id="smart-cockpit_panel-left" fill="#FBB824" stroke="#FBB824" stroke-width="5" stroke-miterlimit="10" d="M59.259,238.401
	c-9.999,30.813-15.98,76.27-15.254,111.138c0.727,34.866,2.905,61.742,7.99,79.176c5.085,17.434,16.364,20.995,24.302,23.971
	c13.563,5.091,58.501,10.996,64.318,7.265c4.389-2.815-13.801-37.047-18.16-74.819s-5.084-73.685-0.727-105.122
	c4.359-31.438,10.896-48.872,13.802-57.588c2.906-8.717,5.834-15.67,0.546-15.818C118.546,206.108,70.095,205.009,59.259,238.401z"
	/>
<path id="smart-cockpit_panel-right" fill="#FBB824" stroke="#FBB824" stroke-width="5" stroke-miterlimit="10" d="M782.939,238.401
	c10.002,30.815,15.98,76.27,15.254,111.138c-0.727,34.866-2.906,61.742-7.99,79.176s-16.363,20.995-24.301,23.971
	c-13.563,5.091-58.502,10.996-64.318,7.265c-4.387-2.815,13.801-37.047,18.158-74.819c4.359-37.772,5.086-73.685,0.729-105.12
	c-4.359-31.44-10.896-48.874-13.803-57.59c-2.904-8.717-5.834-15.67-0.547-15.818C723.652,206.108,772.103,205.009,782.939,238.401z
	"/>
<path id="smart-cockpit_panel-bottom" fill="#FBB824" stroke="#FBB824" stroke-width="5" stroke-miterlimit="10" d="
	M191.635,370.611h455.895c0,0,9.6-0.356,9.957,8.179c0.357,8.534-2.373,59.636-25.287,66.485
	c-8.285,2.477-26.832,10.921-216.361,10.921c-184.728,0-198.954-5.928-208.198-9.838c-9.246-3.91-21.759-25.276-23.826-64.722
	C183.476,375.234,183.776,370.608,191.635,370.611z"/>
<path id="smart-cockpit_panel-top" fill="#FBB824" stroke="#FBB824" stroke-width="5" stroke-miterlimit="10" d="M420.619,118.546
	c0,0,179.962-8.758,231.376,186.682c3.986,15.162-2.18,14.527-8.717,15.98c-6.537,1.452-138.016,0-138.016,0
	s-15.98,2.905-28.33-9.442c-12.348-12.35-24.734-27.603-56.314-27.603c-31.582,0-49.012,21.792-59.181,29.782
	c-10.17,7.99-3.632,8.716-29.056,8.716c-25.423,0-132.931,0-132.931,0s-12.348-0.726-11.622-11.622
	C188.556,300.143,232.83,123.631,420.619,118.546z"/>
</svg>
