<?xml version="1.0" encoding="utf-8"?>
<!-- Generator: Adobe Illustrator 16.0.3, SVG Export Plug-In . SVG Version: 6.00 Build 0)  -->
<!DOCTYPE svg PUBLIC "-//W3C//DTD SVG 1.1//EN" "http://www.w3.org/Graphics/SVG/1.1/DTD/svg11.dtd">
<svg version="1.1" id="Ebene_1" xmlns="http://www.w3.org/2000/svg" xmlns:xlink="http://www.w3.org/1999/xlink" x="0px" y="0px"
	 width="566.929px" height="566.929px" viewBox="0 0 566.929 566.929" enable-background="new 0 0 566.929 566.929"
	 xml:space="preserve">
<g id="_91331920_2_">
	<path fill="#FBB820" d="M400.456,65.399c57.658,37.348,140.697,153.886,163.004,218.225
		c-22.307,64.535-105.346,180.774-163.004,218.208V65.399z"/>
</g>
<g>
	<path fill="#9F9F9F" d="M277.1,148.16c30.11,0,68.569,11.96,98.736,33.531V50.352c-30.028-18.699-66.646-29.666-109.506-29.666
		c-145.349,0-262.86,117.737-262.86,262.938c0,145.373,117.512,262.619,262.86,262.619c42.86,0,79.479-10.544,109.506-29.347
		V385.222c-30.167,21.561-68.626,33.88-98.736,33.88c-81.783,0-141.895-59.729-141.895-135.478
		C135.206,207.543,195.317,148.16,277.1,148.16z"/>
</g>
<g>
</g>
<g>
</g>
<g>
</g>
<g>
</g>
<g>
</g>
<g>
</g>
</svg>
